<svg xmlns="http://www.w3.org/2000/svg" xmlns:xlink="http://www.w3.org/1999/xlink" xmlns:s="https://github.com/nturley/netlistsvg" width="602.5" height="821.5">
  <rect fill="#fff" width="602.5" height="821.5" />
  <style>svg {
    stroke:#000;
    fill:none;
  }
  text {
    fill:#000;
    stroke:none;
    font-size:10px;
    font-weight: bold;
    font-family: "Courier New", monospace;
  }
  line {
      stroke-linecap: round;
  }
  .nodelabel {
    text-anchor: middle;
  }
  .inputPortLabel {
    text-anchor: end;
  }
  .splitjoinBody {
    fill:#000;
  }</style>
  <g s:type="eq" transform="translate(130.33333333333331,534.5)" s:width="25" s:height="25" id="cell_$procmux$10_CMP0">
    <s:alias val="$eq"/>
    <circle r="12.5" cx="12.5" cy="12.5" class="cell_$procmux$10_CMP0"/>
    <line x1="7.5" x2="17.5" y1="10" y2="10" class="cell_$procmux$10_CMP0"/>
    <line x1="7.5" x2="17.5" y1="15" y2="15" class="cell_$procmux$10_CMP0"/>
    <g s:x="2" s:y="5" s:pid="A"/>
    <g s:x="2" s:y="20" s:pid="B"/>
    <g s:x="25" s:y="12.5" s:pid="Y"/>
  </g>
  <g s:type="eq" transform="translate(130.33333333333331,599.5)" s:width="25" s:height="25" id="cell_$procmux$11_CMP0">
    <s:alias val="$eq"/>
    <circle r="12.5" cx="12.5" cy="12.5" class="cell_$procmux$11_CMP0"/>
    <line x1="7.5" x2="17.5" y1="10" y2="10" class="cell_$procmux$11_CMP0"/>
    <line x1="7.5" x2="17.5" y1="15" y2="15" class="cell_$procmux$11_CMP0"/>
    <g s:x="2" s:y="5" s:pid="A"/>
    <g s:x="2" s:y="20" s:pid="B"/>
    <g s:x="25" s:y="12.5" s:pid="Y"/>
  </g>
  <g s:type="eq" transform="translate(130.33333333333331,664.5)" s:width="25" s:height="25" id="cell_$procmux$12_CMP0">
    <s:alias val="$eq"/>
    <circle r="12.5" cx="12.5" cy="12.5" class="cell_$procmux$12_CMP0"/>
    <line x1="7.5" x2="17.5" y1="10" y2="10" class="cell_$procmux$12_CMP0"/>
    <line x1="7.5" x2="17.5" y1="15" y2="15" class="cell_$procmux$12_CMP0"/>
    <g s:x="2" s:y="5" s:pid="A"/>
    <g s:x="2" s:y="20" s:pid="B"/>
    <g s:x="25" s:y="12.5" s:pid="Y"/>
  </g>
  <g s:type="eq" transform="translate(130.33333333333331,729.5)" s:width="25" s:height="25" id="cell_$procmux$13_CMP0">
    <s:alias val="$eq"/>
    <circle r="12.5" cx="12.5" cy="12.5" class="cell_$procmux$13_CMP0"/>
    <line x1="7.5" x2="17.5" y1="10" y2="10" class="cell_$procmux$13_CMP0"/>
    <line x1="7.5" x2="17.5" y1="15" y2="15" class="cell_$procmux$13_CMP0"/>
    <g s:x="2" s:y="5" s:pid="A"/>
    <g s:x="2" s:y="20" s:pid="B"/>
    <g s:x="25" s:y="12.5" s:pid="Y"/>
  </g>
  <g s:type="not" transform="translate(129,789.5)" s:width="30" s:height="20" id="cell_$procmux$14_CMP0">
    <s:alias val="$_NOT_"/>
    <s:alias val="$not"/>
    <s:alias val="$logic_not"/>
    <path d="M0,0 L0,20 L20,10 Z" class="cell_$procmux$14_CMP0"/>
    <circle cx="24" cy="10" r="3" class="cell_$procmux$14_CMP0"/>
    <g s:x="-1" s:y="10" s:pid="A"/>
    <g s:x="27" s:y="10" s:pid="Y"/>
  </g>
  <g s:type="mux-bus" transform="translate(462,22)" s:width="24" s:height="40" id="cell_$procmux$3">
    <s:alias val="$pmux-bus"/>
    <s:alias val="$mux-bus"/>
    <s:alias val="$_MUX_-bus"/>
    <path d="M0,0 L20,10 L20,30 L0,40 Z" class="cell_$procmux$3"/>
    <path d="M4,2 L4,0 L22,9 L22,31 L4,40 L4,38" class="cell_$procmux$3"/>
    <path d="M8,2 L8,0 L24,8 L24,32 L8,40 L8,38" class="cell_$procmux$3"/>
    <text x="5" y="32" class="nodelabel cell_$procmux$3" s:attribute="">1</text>
    <text x="5" y="13" class="nodelabel cell_$procmux$3" s:attribute="">0</text>
    <g s:x="-1" s:y="10" s:pid="A"/>
    <g s:x="-1" s:y="30" s:pid="B"/>
    <g s:x="12" s:y="38" s:pid="S"/>
    <g s:x="24.5" s:y="20" s:pid="Y"/>
  </g>
  <g s:type="eq" transform="translate(130.33333333333331,104.5)" s:width="25" s:height="25" id="cell_$procmux$4_CMP0">
    <s:alias val="$eq"/>
    <circle r="12.5" cx="12.5" cy="12.5" class="cell_$procmux$4_CMP0"/>
    <line x1="7.5" x2="17.5" y1="10" y2="10" class="cell_$procmux$4_CMP0"/>
    <line x1="7.5" x2="17.5" y1="15" y2="15" class="cell_$procmux$4_CMP0"/>
    <g s:x="2" s:y="5" s:pid="A"/>
    <g s:x="2" s:y="20" s:pid="B"/>
    <g s:x="25" s:y="12.5" s:pid="Y"/>
  </g>
  <g s:type="eq" transform="translate(130.33333333333331,164.5)" s:width="25" s:height="25" id="cell_$procmux$5_CMP0">
    <s:alias val="$eq"/>
    <circle r="12.5" cx="12.5" cy="12.5" class="cell_$procmux$5_CMP0"/>
    <line x1="7.5" x2="17.5" y1="10" y2="10" class="cell_$procmux$5_CMP0"/>
    <line x1="7.5" x2="17.5" y1="15" y2="15" class="cell_$procmux$5_CMP0"/>
    <g s:x="2" s:y="5" s:pid="A"/>
    <g s:x="2" s:y="20" s:pid="B"/>
    <g s:x="25" s:y="12.5" s:pid="Y"/>
  </g>
  <g s:type="eq" transform="translate(130.33333333333331,224.5)" s:width="25" s:height="25" id="cell_$procmux$6_CMP0">
    <s:alias val="$eq"/>
    <circle r="12.5" cx="12.5" cy="12.5" class="cell_$procmux$6_CMP0"/>
    <line x1="7.5" x2="17.5" y1="10" y2="10" class="cell_$procmux$6_CMP0"/>
    <line x1="7.5" x2="17.5" y1="15" y2="15" class="cell_$procmux$6_CMP0"/>
    <g s:x="2" s:y="5" s:pid="A"/>
    <g s:x="2" s:y="20" s:pid="B"/>
    <g s:x="25" s:y="12.5" s:pid="Y"/>
  </g>
  <g s:type="eq" transform="translate(130.33333333333331,284.5)" s:width="25" s:height="25" id="cell_$procmux$7_CMP0">
    <s:alias val="$eq"/>
    <circle r="12.5" cx="12.5" cy="12.5" class="cell_$procmux$7_CMP0"/>
    <line x1="7.5" x2="17.5" y1="10" y2="10" class="cell_$procmux$7_CMP0"/>
    <line x1="7.5" x2="17.5" y1="15" y2="15" class="cell_$procmux$7_CMP0"/>
    <g s:x="2" s:y="5" s:pid="A"/>
    <g s:x="2" s:y="20" s:pid="B"/>
    <g s:x="25" s:y="12.5" s:pid="Y"/>
  </g>
  <g s:type="eq" transform="translate(130.33333333333331,344.5)" s:width="25" s:height="25" id="cell_$procmux$8_CMP0">
    <s:alias val="$eq"/>
    <circle r="12.5" cx="12.5" cy="12.5" class="cell_$procmux$8_CMP0"/>
    <line x1="7.5" x2="17.5" y1="10" y2="10" class="cell_$procmux$8_CMP0"/>
    <line x1="7.5" x2="17.5" y1="15" y2="15" class="cell_$procmux$8_CMP0"/>
    <g s:x="2" s:y="5" s:pid="A"/>
    <g s:x="2" s:y="20" s:pid="B"/>
    <g s:x="25" s:y="12.5" s:pid="Y"/>
  </g>
  <g s:type="eq" transform="translate(130.33333333333331,449.5)" s:width="25" s:height="25" id="cell_$procmux$9_CMP0">
    <s:alias val="$eq"/>
    <circle r="12.5" cx="12.5" cy="12.5" class="cell_$procmux$9_CMP0"/>
    <line x1="7.5" x2="17.5" y1="10" y2="10" class="cell_$procmux$9_CMP0"/>
    <line x1="7.5" x2="17.5" y1="15" y2="15" class="cell_$procmux$9_CMP0"/>
    <g s:x="2" s:y="5" s:pid="A"/>
    <g s:x="2" s:y="20" s:pid="B"/>
    <g s:x="25" s:y="12.5" s:pid="Y"/>
  </g>
  <g s:type="inputExt" transform="translate(12,444.5)" s:width="30" s:height="20" id="cell_address">
    <text x="15" y="-4" class="nodelabel cell_address" s:attribute="ref">address</text>
    <s:alias val="$_inputExt_"/>
    <path d="M0,0 L0,20 L15,20 L30,10 L15,0 Z" class="cell_address"/>
    <g s:x="30" s:y="10" s:pid="Y"/>
  </g>
  <g s:type="outputExt" transform="translate(560.5,32)" s:width="30" s:height="20" id="cell_data">
    <text x="15" y="-4" class="nodelabel cell_data" s:attribute="ref">data</text>
    <s:alias val="$_outputExt_"/>
    <path d="M30,0 L30,20 L15,20 L0,10 L15,0 Z" class="cell_data"/>
    <g s:x="0" s:y="10" s:pid="A"/>
  </g>
  <g s:type="constant" transform="translate(12,574.5)" s:width="30" s:height="20" id="cell_0100">
    <text x="15" y="-4" class="nodelabel cell_0100" s:attribute="ref">0x4</text>
    <s:alias val="$_constant_"/>
    <rect width="30" height="20" class="cell_0100"/>
    <g s:x="31" s:y="10" s:pid="Y"/>
  </g>
  <g s:type="constant" transform="translate(12,639.5)" s:width="30" s:height="20" id="cell_0011">
    <text x="15" y="-4" class="nodelabel cell_0011" s:attribute="ref">0x3</text>
    <s:alias val="$_constant_"/>
    <rect width="30" height="20" class="cell_0011"/>
    <g s:x="31" s:y="10" s:pid="Y"/>
  </g>
  <g s:type="constant" transform="translate(12,704.5)" s:width="30" s:height="20" id="cell_0010">
    <text x="15" y="-4" class="nodelabel cell_0010" s:attribute="ref">0x2</text>
    <s:alias val="$_constant_"/>
    <rect width="30" height="20" class="cell_0010"/>
    <g s:x="31" s:y="10" s:pid="Y"/>
  </g>
  <g s:type="constant" transform="translate(12,769.5)" s:width="30" s:height="20" id="cell_0001">
    <text x="15" y="-4" class="nodelabel cell_0001" s:attribute="ref">0x1</text>
    <s:alias val="$_constant_"/>
    <rect width="30" height="20" class="cell_0001"/>
    <g s:x="31" s:y="10" s:pid="Y"/>
  </g>
  <g s:type="constant" transform="translate(249,22)" s:width="30" s:height="20" id="cell_00000000">
    <text x="15" y="-4" class="nodelabel cell_00000000" s:attribute="ref">0x0</text>
    <s:alias val="$_constant_"/>
    <rect width="30" height="20" class="cell_00000000"/>
    <g s:x="31" s:y="10" s:pid="Y"/>
  </g>
  <g s:type="constant" transform="translate(249,87)" s:width="30" s:height="20" id="cell_0000000100000010000001000000100000010000001000000100000010000000101010100101010110011001">
    <text x="15" y="-4" class="nodelabel cell_0000000100000010000001000000100000010000001000000100000010000000101010100101010110011001" s:attribute="ref">0x102040810204080000000</text>
    <s:alias val="$_constant_"/>
    <rect width="30" height="20" class="cell_0000000100000010000001000000100000010000001000000100000010000000101010100101010110011001"/>
    <g s:x="31" s:y="10" s:pid="Y"/>
  </g>
  <g s:type="constant" transform="translate(12,119.5)" s:width="30" s:height="20" id="cell_1010">
    <text x="15" y="-4" class="nodelabel cell_1010" s:attribute="ref">0xa</text>
    <s:alias val="$_constant_"/>
    <rect width="30" height="20" class="cell_1010"/>
    <g s:x="31" s:y="10" s:pid="Y"/>
  </g>
  <g s:type="constant" transform="translate(12,184.5)" s:width="30" s:height="20" id="cell_1001">
    <text x="15" y="-4" class="nodelabel cell_1001" s:attribute="ref">0x9</text>
    <s:alias val="$_constant_"/>
    <rect width="30" height="20" class="cell_1001"/>
    <g s:x="31" s:y="10" s:pid="Y"/>
  </g>
  <g s:type="constant" transform="translate(12,249.5)" s:width="30" s:height="20" id="cell_1000">
    <text x="15" y="-4" class="nodelabel cell_1000" s:attribute="ref">0x8</text>
    <s:alias val="$_constant_"/>
    <rect width="30" height="20" class="cell_1000"/>
    <g s:x="31" s:y="10" s:pid="Y"/>
  </g>
  <g s:type="constant" transform="translate(12,314.5)" s:width="30" s:height="20" id="cell_0111">
    <text x="15" y="-4" class="nodelabel cell_0111" s:attribute="ref">0x7</text>
    <s:alias val="$_constant_"/>
    <rect width="30" height="20" class="cell_0111"/>
    <g s:x="31" s:y="10" s:pid="Y"/>
  </g>
  <g s:type="constant" transform="translate(12,379.5)" s:width="30" s:height="20" id="cell_0110">
    <text x="15" y="-4" class="nodelabel cell_0110" s:attribute="ref">0x6</text>
    <s:alias val="$_constant_"/>
    <rect width="30" height="20" class="cell_0110"/>
    <g s:x="31" s:y="10" s:pid="Y"/>
  </g>
  <g s:type="constant" transform="translate(12,509.5)" s:width="30" s:height="20" id="cell_0101">
    <text x="15" y="-4" class="nodelabel cell_0101" s:attribute="ref">0x5</text>
    <s:alias val="$_constant_"/>
    <rect width="30" height="20" class="cell_0101"/>
    <g s:x="31" s:y="10" s:pid="Y"/>
  </g>
  <g s:type="join" transform="translate(262.4,146.5)" s:width="4" s:height="40" id="cell_$join$,19,20,21,22,23,24,14,15,16,17,18,">
    <rect width="5" height="220" class="splitjoinBody" s:generic="body"/>
    <s:alias val="$_join_"/>
    <g s:x="5" s:y="20" s:pid="out"/>
    <g transform="translate(0,10)" s:x="0" s:y="10" s:pid="in0">
      <text x="-3" y="-4" class="inputPortLabel">0</text>
    </g>
    <g transform="translate(0,30)" s:x="0" s:y="10" s:pid="in0">
      <text x="-3" y="-4" class="inputPortLabel">1</text>
    </g>
    <g transform="translate(0,50)" s:x="0" s:y="10" s:pid="in0">
      <text x="-3" y="-4" class="inputPortLabel">2</text>
    </g>
    <g transform="translate(0,70)" s:x="0" s:y="10" s:pid="in0">
      <text x="-3" y="-4" class="inputPortLabel">3</text>
    </g>
    <g transform="translate(0,90)" s:x="0" s:y="10" s:pid="in0">
      <text x="-3" y="-4" class="inputPortLabel">4</text>
    </g>
    <g transform="translate(0,110)" s:x="0" s:y="10" s:pid="in0">
      <text x="-3" y="-4" class="inputPortLabel">5</text>
    </g>
    <g transform="translate(0,130)" s:x="0" s:y="10" s:pid="in0">
      <text x="-3" y="-4" class="inputPortLabel">6</text>
    </g>
    <g transform="translate(0,150)" s:x="0" s:y="10" s:pid="in0">
      <text x="-3" y="-4" class="inputPortLabel">7</text>
    </g>
    <g transform="translate(0,170)" s:x="0" s:y="10" s:pid="in0">
      <text x="-3" y="-4" class="inputPortLabel">8</text>
    </g>
    <g transform="translate(0,190)" s:x="0" s:y="10" s:pid="in0">
      <text x="-3" y="-4" class="inputPortLabel">9</text>
    </g>
    <g transform="translate(0,210)" s:x="0" s:y="10" s:pid="in0">
      <text x="-3" y="-4" class="inputPortLabel">10</text>
    </g>
  </g>
  <line x1="42" x2="64" y1="454.5" y2="454.5" class="net_2,3,4,5 width_4" style="stroke-width: 2"/>
  <line x1="64" x2="64" y1="454.5" y2="539.5" class="net_2,3,4,5 width_4" style="stroke-width: 2"/>
  <circle cx="64" cy="454.5" r="3" style="fill:#000" class="net_2,3,4,5 width_4"/>
  <circle cx="64" cy="539.5" r="3" style="fill:#000" class="net_2,3,4,5 width_4"/>
  <line x1="64" x2="132.33333333333331" y1="539.5" y2="539.5" class="net_2,3,4,5 width_4" style="stroke-width: 2"/>
  <line x1="42" x2="64" y1="454.5" y2="454.5" class="net_2,3,4,5 width_4" style="stroke-width: 2"/>
  <line x1="64" x2="64" y1="454.5" y2="604.5" class="net_2,3,4,5 width_4" style="stroke-width: 2"/>
  <circle cx="64" cy="604.5" r="3" style="fill:#000" class="net_2,3,4,5 width_4"/>
  <line x1="64" x2="132.33333333333331" y1="604.5" y2="604.5" class="net_2,3,4,5 width_4" style="stroke-width: 2"/>
  <line x1="42" x2="64" y1="454.5" y2="454.5" class="net_2,3,4,5 width_4" style="stroke-width: 2"/>
  <line x1="64" x2="64" y1="454.5" y2="669.5" class="net_2,3,4,5 width_4" style="stroke-width: 2"/>
  <circle cx="64" cy="669.5" r="3" style="fill:#000" class="net_2,3,4,5 width_4"/>
  <line x1="64" x2="132.33333333333331" y1="669.5" y2="669.5" class="net_2,3,4,5 width_4" style="stroke-width: 2"/>
  <line x1="42" x2="64" y1="454.5" y2="454.5" class="net_2,3,4,5 width_4" style="stroke-width: 2"/>
  <line x1="64" x2="64" y1="454.5" y2="734.5" class="net_2,3,4,5 width_4" style="stroke-width: 2"/>
  <circle cx="64" cy="734.5" r="3" style="fill:#000" class="net_2,3,4,5 width_4"/>
  <line x1="64" x2="132.33333333333331" y1="734.5" y2="734.5" class="net_2,3,4,5 width_4" style="stroke-width: 2"/>
  <line x1="42" x2="64" y1="454.5" y2="454.5" class="net_2,3,4,5 width_4" style="stroke-width: 2"/>
  <line x1="64" x2="64" y1="454.5" y2="799.5" class="net_2,3,4,5 width_4" style="stroke-width: 2"/>
  <line x1="64" x2="128" y1="799.5" y2="799.5" class="net_2,3,4,5 width_4" style="stroke-width: 2"/>
  <line x1="42" x2="64" y1="454.5" y2="454.5" class="net_2,3,4,5 width_4" style="stroke-width: 2"/>
  <line x1="64" x2="64" y1="454.5" y2="109.5" class="net_2,3,4,5 width_4" style="stroke-width: 2"/>
  <line x1="64" x2="132.33333333333331" y1="109.5" y2="109.5" class="net_2,3,4,5 width_4" style="stroke-width: 2"/>
  <line x1="42" x2="64" y1="454.5" y2="454.5" class="net_2,3,4,5 width_4" style="stroke-width: 2"/>
  <line x1="64" x2="64" y1="454.5" y2="169.5" class="net_2,3,4,5 width_4" style="stroke-width: 2"/>
  <circle cx="64" cy="169.5" r="3" style="fill:#000" class="net_2,3,4,5 width_4"/>
  <line x1="64" x2="132.33333333333331" y1="169.5" y2="169.5" class="net_2,3,4,5 width_4" style="stroke-width: 2"/>
  <line x1="42" x2="64" y1="454.5" y2="454.5" class="net_2,3,4,5 width_4" style="stroke-width: 2"/>
  <line x1="64" x2="64" y1="454.5" y2="229.5" class="net_2,3,4,5 width_4" style="stroke-width: 2"/>
  <circle cx="64" cy="229.5" r="3" style="fill:#000" class="net_2,3,4,5 width_4"/>
  <line x1="64" x2="132.33333333333331" y1="229.5" y2="229.5" class="net_2,3,4,5 width_4" style="stroke-width: 2"/>
  <line x1="42" x2="64" y1="454.5" y2="454.5" class="net_2,3,4,5 width_4" style="stroke-width: 2"/>
  <line x1="64" x2="64" y1="454.5" y2="289.5" class="net_2,3,4,5 width_4" style="stroke-width: 2"/>
  <circle cx="64" cy="289.5" r="3" style="fill:#000" class="net_2,3,4,5 width_4"/>
  <line x1="64" x2="132.33333333333331" y1="289.5" y2="289.5" class="net_2,3,4,5 width_4" style="stroke-width: 2"/>
  <line x1="42" x2="64" y1="454.5" y2="454.5" class="net_2,3,4,5 width_4" style="stroke-width: 2"/>
  <line x1="64" x2="64" y1="454.5" y2="349.5" class="net_2,3,4,5 width_4" style="stroke-width: 2"/>
  <circle cx="64" cy="349.5" r="3" style="fill:#000" class="net_2,3,4,5 width_4"/>
  <line x1="64" x2="132.33333333333331" y1="349.5" y2="349.5" class="net_2,3,4,5 width_4" style="stroke-width: 2"/>
  <line x1="42" x2="132.33333333333331" y1="454.5" y2="454.5" class="net_2,3,4,5 width_4" style="stroke-width: 2"/>
  <line x1="43" x2="103" y1="584.5" y2="584.5" class="net_25,26,27,28 width_4" style="stroke-width: 2"/>
  <line x1="103" x2="103" y1="584.5" y2="554.5" class="net_25,26,27,28 width_4" style="stroke-width: 2"/>
  <line x1="103" x2="132.33333333333331" y1="554.5" y2="554.5" class="net_25,26,27,28 width_4" style="stroke-width: 2"/>
  <line x1="43" x2="103" y1="649.5" y2="649.5" class="net_29,30,31,32 width_4" style="stroke-width: 2"/>
  <line x1="103" x2="103" y1="649.5" y2="619.5" class="net_29,30,31,32 width_4" style="stroke-width: 2"/>
  <line x1="103" x2="132.33333333333331" y1="619.5" y2="619.5" class="net_29,30,31,32 width_4" style="stroke-width: 2"/>
  <line x1="43" x2="103" y1="714.5" y2="714.5" class="net_33,34,35,36 width_4" style="stroke-width: 2"/>
  <line x1="103" x2="103" y1="714.5" y2="684.5" class="net_33,34,35,36 width_4" style="stroke-width: 2"/>
  <line x1="103" x2="132.33333333333331" y1="684.5" y2="684.5" class="net_33,34,35,36 width_4" style="stroke-width: 2"/>
  <line x1="43" x2="103" y1="779.5" y2="779.5" class="net_37,38,39,40 width_4" style="stroke-width: 2"/>
  <line x1="103" x2="103" y1="779.5" y2="749.5" class="net_37,38,39,40 width_4" style="stroke-width: 2"/>
  <line x1="103" x2="132.33333333333331" y1="749.5" y2="749.5" class="net_37,38,39,40 width_4" style="stroke-width: 2"/>
  <line x1="280" x2="461" y1="32" y2="32" class="net_41,42,43,44,45,46,47,48 width_8" style="stroke-width: 2"/>
  <line x1="280" x2="436" y1="97" y2="97" class="net_49,50,51,52,53,54,55,56,57,58,59,60,61,62,63,64,65,66,67,68,69,70,71,72,73,74,75,76,77,78,79,80,81,82,83,84,85,86,87,88,89,90,91,92,93,94,95,96,97,98,99,100,101,102,103,104,105,106,107,108,109,110,111,112,113,114,115,116,117,118,119,120,121,122,123,124,125,126,127,128,129,130,131,132,133,134,135,136 width_88" style="stroke-width: 2"/>
  <line x1="436" x2="436" y1="97" y2="52" class="net_49,50,51,52,53,54,55,56,57,58,59,60,61,62,63,64,65,66,67,68,69,70,71,72,73,74,75,76,77,78,79,80,81,82,83,84,85,86,87,88,89,90,91,92,93,94,95,96,97,98,99,100,101,102,103,104,105,106,107,108,109,110,111,112,113,114,115,116,117,118,119,120,121,122,123,124,125,126,127,128,129,130,131,132,133,134,135,136 width_88" style="stroke-width: 2"/>
  <line x1="436" x2="461" y1="52" y2="52" class="net_49,50,51,52,53,54,55,56,57,58,59,60,61,62,63,64,65,66,67,68,69,70,71,72,73,74,75,76,77,78,79,80,81,82,83,84,85,86,87,88,89,90,91,92,93,94,95,96,97,98,99,100,101,102,103,104,105,106,107,108,109,110,111,112,113,114,115,116,117,118,119,120,121,122,123,124,125,126,127,128,129,130,131,132,133,134,135,136 width_88" style="stroke-width: 2"/>
  <line x1="268.4" x2="474" y1="167" y2="167" class="net_19,20,21,22,23,24,14,15,16,17,18 width_11" style="stroke-width: 2"/>
  <line x1="474" x2="474" y1="167" y2="60" class="net_19,20,21,22,23,24,14,15,16,17,18 width_11" style="stroke-width: 2"/>
  <line x1="43" x2="103" y1="129.5" y2="129.5" class="net_137,138,139,140 width_4" style="stroke-width: 2"/>
  <line x1="103" x2="103" y1="129.5" y2="124.5" class="net_137,138,139,140 width_4" style="stroke-width: 2"/>
  <line x1="103" x2="132.33333333333331" y1="124.5" y2="124.5" class="net_137,138,139,140 width_4" style="stroke-width: 2"/>
  <line x1="43" x2="103" y1="194.5" y2="194.5" class="net_141,142,143,144 width_4" style="stroke-width: 2"/>
  <line x1="103" x2="103" y1="194.5" y2="184.5" class="net_141,142,143,144 width_4" style="stroke-width: 2"/>
  <line x1="103" x2="132.33333333333331" y1="184.5" y2="184.5" class="net_141,142,143,144 width_4" style="stroke-width: 2"/>
  <line x1="43" x2="103" y1="259.5" y2="259.5" class="net_145,146,147,148 width_4" style="stroke-width: 2"/>
  <line x1="103" x2="103" y1="259.5" y2="244.5" class="net_145,146,147,148 width_4" style="stroke-width: 2"/>
  <line x1="103" x2="132.33333333333331" y1="244.5" y2="244.5" class="net_145,146,147,148 width_4" style="stroke-width: 2"/>
  <line x1="43" x2="103" y1="324.5" y2="324.5" class="net_149,150,151,152 width_4" style="stroke-width: 2"/>
  <line x1="103" x2="103" y1="324.5" y2="304.5" class="net_149,150,151,152 width_4" style="stroke-width: 2"/>
  <line x1="103" x2="132.33333333333331" y1="304.5" y2="304.5" class="net_149,150,151,152 width_4" style="stroke-width: 2"/>
  <line x1="43" x2="103" y1="389.5" y2="389.5" class="net_153,154,155,156 width_4" style="stroke-width: 2"/>
  <line x1="103" x2="103" y1="389.5" y2="364.5" class="net_153,154,155,156 width_4" style="stroke-width: 2"/>
  <line x1="103" x2="132.33333333333331" y1="364.5" y2="364.5" class="net_153,154,155,156 width_4" style="stroke-width: 2"/>
  <line x1="43" x2="103" y1="519.5" y2="519.5" class="net_157,158,159,160 width_4" style="stroke-width: 2"/>
  <line x1="103" x2="103" y1="519.5" y2="469.5" class="net_157,158,159,160 width_4" style="stroke-width: 2"/>
  <line x1="103" x2="132.33333333333331" y1="469.5" y2="469.5" class="net_157,158,159,160 width_4" style="stroke-width: 2"/>
  <line x1="486.5" x2="560.5" y1="42" y2="42" class="net_6,7,8,9,10,11,12,13 width_8" style="stroke-width: 2"/>
  <line x1="155.33333333333331" x2="262.9" y1="117" y2="117" class="net_19 width_1" style="stroke-width: 1"/>
  <line x1="262.9" x2="262.9" y1="117" y2="156.5" class="net_19 width_1" style="stroke-width: 1"/>
  <line x1="155.33333333333331" x2="262.4" y1="177" y2="177" class="net_20 width_1" style="stroke-width: 1"/>
  <line x1="155.33333333333331" x2="169" y1="237" y2="237" class="net_21 width_1" style="stroke-width: 1"/>
  <line x1="169" x2="169" y1="237" y2="197" class="net_21 width_1" style="stroke-width: 1"/>
  <line x1="169" x2="262.4" y1="197" y2="197" class="net_21 width_1" style="stroke-width: 1"/>
  <line x1="155.33333333333331" x2="179" y1="297" y2="297" class="net_22 width_1" style="stroke-width: 1"/>
  <line x1="179" x2="179" y1="297" y2="217" class="net_22 width_1" style="stroke-width: 1"/>
  <line x1="179" x2="262.4" y1="217" y2="217" class="net_22 width_1" style="stroke-width: 1"/>
  <line x1="155.33333333333331" x2="189" y1="357" y2="357" class="net_23 width_1" style="stroke-width: 1"/>
  <line x1="189" x2="189" y1="357" y2="237" class="net_23 width_1" style="stroke-width: 1"/>
  <line x1="189" x2="262.4" y1="237" y2="237" class="net_23 width_1" style="stroke-width: 1"/>
  <line x1="155.33333333333331" x2="199" y1="462" y2="462" class="net_24 width_1" style="stroke-width: 1"/>
  <line x1="199" x2="199" y1="462" y2="257" class="net_24 width_1" style="stroke-width: 1"/>
  <line x1="199" x2="262.4" y1="257" y2="257" class="net_24 width_1" style="stroke-width: 1"/>
  <line x1="155.33333333333331" x2="209" y1="547" y2="547" class="net_14 width_1" style="stroke-width: 1"/>
  <line x1="209" x2="209" y1="547" y2="277" class="net_14 width_1" style="stroke-width: 1"/>
  <line x1="209" x2="262.4" y1="277" y2="277" class="net_14 width_1" style="stroke-width: 1"/>
  <line x1="155.33333333333331" x2="219" y1="612" y2="612" class="net_15 width_1" style="stroke-width: 1"/>
  <line x1="219" x2="219" y1="612" y2="297" class="net_15 width_1" style="stroke-width: 1"/>
  <line x1="219" x2="262.4" y1="297" y2="297" class="net_15 width_1" style="stroke-width: 1"/>
  <line x1="155.33333333333331" x2="229" y1="677" y2="677" class="net_16 width_1" style="stroke-width: 1"/>
  <line x1="229" x2="229" y1="677" y2="317" class="net_16 width_1" style="stroke-width: 1"/>
  <line x1="229" x2="262.4" y1="317" y2="317" class="net_16 width_1" style="stroke-width: 1"/>
  <line x1="155.33333333333331" x2="239" y1="742" y2="742" class="net_17 width_1" style="stroke-width: 1"/>
  <line x1="239" x2="239" y1="742" y2="337" class="net_17 width_1" style="stroke-width: 1"/>
  <line x1="239" x2="262.4" y1="337" y2="337" class="net_17 width_1" style="stroke-width: 1"/>
  <line x1="156" x2="262.9" y1="799.5" y2="799.5" class="net_18 width_1" style="stroke-width: 1"/>
  <line x1="262.9" x2="262.9" y1="799.5" y2="357.5" class="net_18 width_1" style="stroke-width: 1"/>
  <rect x="90" y="449.5" width="16" height="9" class="net_2,3,4,5 width_4 busLabel_4" style="fill: white; stroke: none"/>
  <text x="89" y="457.5" class="net_2,3,4,5 width_4 busLabel_4">/4/</text>
  <rect x="90" y="449.5" width="16" height="9" class="net_2,3,4,5 width_4 busLabel_4" style="fill: white; stroke: none"/>
  <text x="89" y="457.5" class="net_2,3,4,5 width_4 busLabel_4">/4/</text>
  <rect x="90" y="449.5" width="16" height="9" class="net_2,3,4,5 width_4 busLabel_4" style="fill: white; stroke: none"/>
  <text x="89" y="457.5" class="net_2,3,4,5 width_4 busLabel_4">/4/</text>
  <rect x="90" y="449.5" width="16" height="9" class="net_2,3,4,5 width_4 busLabel_4" style="fill: white; stroke: none"/>
  <text x="89" y="457.5" class="net_2,3,4,5 width_4 busLabel_4">/4/</text>
  <rect x="90" y="449.5" width="16" height="9" class="net_2,3,4,5 width_4 busLabel_4" style="fill: white; stroke: none"/>
  <text x="89" y="457.5" class="net_2,3,4,5 width_4 busLabel_4">/4/</text>
  <rect x="90" y="449.5" width="16" height="9" class="net_2,3,4,5 width_4 busLabel_4" style="fill: white; stroke: none"/>
  <text x="89" y="457.5" class="net_2,3,4,5 width_4 busLabel_4">/4/</text>
  <rect x="90" y="449.5" width="16" height="9" class="net_2,3,4,5 width_4 busLabel_4" style="fill: white; stroke: none"/>
  <text x="89" y="457.5" class="net_2,3,4,5 width_4 busLabel_4">/4/</text>
  <rect x="90" y="449.5" width="16" height="9" class="net_2,3,4,5 width_4 busLabel_4" style="fill: white; stroke: none"/>
  <text x="89" y="457.5" class="net_2,3,4,5 width_4 busLabel_4">/4/</text>
  <rect x="90" y="449.5" width="16" height="9" class="net_2,3,4,5 width_4 busLabel_4" style="fill: white; stroke: none"/>
  <text x="89" y="457.5" class="net_2,3,4,5 width_4 busLabel_4">/4/</text>
  <rect x="90" y="449.5" width="16" height="9" class="net_2,3,4,5 width_4 busLabel_4" style="fill: white; stroke: none"/>
  <text x="89" y="457.5" class="net_2,3,4,5 width_4 busLabel_4">/4/</text>
  <rect x="90" y="449.5" width="16" height="9" class="net_2,3,4,5 width_4 busLabel_4" style="fill: white; stroke: none"/>
  <text x="89" y="457.5" class="net_2,3,4,5 width_4 busLabel_4">/4/</text>
  <rect x="90" y="579.5" width="16" height="9" class="net_25,26,27,28 width_4 busLabel_4" style="fill: white; stroke: none"/>
  <text x="89" y="587.5" class="net_25,26,27,28 width_4 busLabel_4">/4/</text>
  <rect x="90" y="644.5" width="16" height="9" class="net_29,30,31,32 width_4 busLabel_4" style="fill: white; stroke: none"/>
  <text x="89" y="652.5" class="net_29,30,31,32 width_4 busLabel_4">/4/</text>
  <rect x="90" y="709.5" width="16" height="9" class="net_33,34,35,36 width_4 busLabel_4" style="fill: white; stroke: none"/>
  <text x="89" y="717.5" class="net_33,34,35,36 width_4 busLabel_4">/4/</text>
  <rect x="90" y="774.5" width="16" height="9" class="net_37,38,39,40 width_4 busLabel_4" style="fill: white; stroke: none"/>
  <text x="89" y="782.5" class="net_37,38,39,40 width_4 busLabel_4">/4/</text>
  <rect x="423" y="27" width="16" height="9" class="net_41,42,43,44,45,46,47,48 width_8 busLabel_8" style="fill: white; stroke: none"/>
  <text x="422" y="35" class="net_41,42,43,44,45,46,47,48 width_8 busLabel_8">/8/</text>
  <rect x="423" y="92" width="22" height="9" class="net_49,50,51,52,53,54,55,56,57,58,59,60,61,62,63,64,65,66,67,68,69,70,71,72,73,74,75,76,77,78,79,80,81,82,83,84,85,86,87,88,89,90,91,92,93,94,95,96,97,98,99,100,101,102,103,104,105,106,107,108,109,110,111,112,113,114,115,116,117,118,119,120,121,122,123,124,125,126,127,128,129,130,131,132,133,134,135,136 width_88 busLabel_88" style="fill: white; stroke: none"/>
  <text x="422" y="100" class="net_49,50,51,52,53,54,55,56,57,58,59,60,61,62,63,64,65,66,67,68,69,70,71,72,73,74,75,76,77,78,79,80,81,82,83,84,85,86,87,88,89,90,91,92,93,94,95,96,97,98,99,100,101,102,103,104,105,106,107,108,109,110,111,112,113,114,115,116,117,118,119,120,121,122,123,124,125,126,127,128,129,130,131,132,133,134,135,136 width_88 busLabel_88">/88/</text>
  <rect x="423" y="162" width="22" height="9" class="net_19,20,21,22,23,24,14,15,16,17,18 width_11 busLabel_11" style="fill: white; stroke: none"/>
  <text x="422" y="170" class="net_19,20,21,22,23,24,14,15,16,17,18 width_11 busLabel_11">/11/</text>
  <rect x="90" y="124.5" width="16" height="9" class="net_137,138,139,140 width_4 busLabel_4" style="fill: white; stroke: none"/>
  <text x="89" y="132.5" class="net_137,138,139,140 width_4 busLabel_4">/4/</text>
  <rect x="90" y="189.5" width="16" height="9" class="net_141,142,143,144 width_4 busLabel_4" style="fill: white; stroke: none"/>
  <text x="89" y="197.5" class="net_141,142,143,144 width_4 busLabel_4">/4/</text>
  <rect x="90" y="254.5" width="16" height="9" class="net_145,146,147,148 width_4 busLabel_4" style="fill: white; stroke: none"/>
  <text x="89" y="262.5" class="net_145,146,147,148 width_4 busLabel_4">/4/</text>
  <rect x="90" y="319.5" width="16" height="9" class="net_149,150,151,152 width_4 busLabel_4" style="fill: white; stroke: none"/>
  <text x="89" y="327.5" class="net_149,150,151,152 width_4 busLabel_4">/4/</text>
  <rect x="90" y="384.5" width="16" height="9" class="net_153,154,155,156 width_4 busLabel_4" style="fill: white; stroke: none"/>
  <text x="89" y="392.5" class="net_153,154,155,156 width_4 busLabel_4">/4/</text>
  <rect x="90" y="514.5" width="16" height="9" class="net_157,158,159,160 width_4 busLabel_4" style="fill: white; stroke: none"/>
  <text x="89" y="522.5" class="net_157,158,159,160 width_4 busLabel_4">/4/</text>
  <rect x="522.5" y="37" width="16" height="9" class="net_6,7,8,9,10,11,12,13 width_8 busLabel_8" style="fill: white; stroke: none"/>
  <text x="521.5" y="45" class="net_6,7,8,9,10,11,12,13 width_8 busLabel_8">/8/</text>
</svg>
