<svg xmlns="http://www.w3.org/2000/svg" xmlns:xlink="http://www.w3.org/1999/xlink" xmlns:s="https://github.com/nturley/netlistsvg" width="521.5" height="189">
  <rect fill="#fff" width="521.5" height="189"/>
  <style>svg {
    stroke:#000;
    fill:none;
  }
  text {
    fill:#000;
    stroke:none;
    font-size:10px;
    font-weight: bold;
    font-family: "Courier New", monospace;
  }
  line {
      stroke-linecap: round;
  }
  .nodelabel {
    text-anchor: middle;
  }
  .inputPortLabel {
    text-anchor: end;
  }
  .splitjoinBody {
    fill:#000;
  }</style>
  <g s:type="add" transform="translate(120.66666666666667,26)" s:width="25" s:height="25" id="cell_$add$counter.v:13$2">
    <s:alias val="$add"/>
    <circle r="12.5" cx="12.5" cy="12.5" class="cell_$add$counter.v:13$2"/>
    <line x1="7.5" x2="17.5" y1="12.5" y2="12.5" class="cell_$add$counter.v:13$2"/>
    <line x1="12.5" x2="12.5" y1="7.5" y2="17.5" class="cell_$add$counter.v:13$2"/>
    <g s:x="2" s:y="5" s:pid="A"/>
    <g s:x="2" s:y="20" s:pid="B"/>
    <g s:x="26" s:y="12.5" s:pid="Y"/>
  </g>
  <g s:type="dff" transform="translate(374.5,127)" s:width="30" s:height="40" id="cell_$procdff$6">
    <s:alias val="$dff"/>
    <s:alias val="$_DFF_"/>
    <s:alias val="$_DFF_P_"/>
    <s:alias val="dff-bus"/>
    <s:alias val="$dff-bus"/>
    <s:alias val="$_DFF_-bus"/>
    <s:alias val="$_DFF_P_-bus"/>
    <rect width="30" height="40" x="0" y="0" class="cell_$procdff$6"/>
    <path d="M0,35 L5,30 L0,25" class="cell_$procdff$6"/>
    <g s:x="31" s:y="10" s:pid="Q"/>
    <g s:x="-1" s:y="30" s:pid="CLK"/>
    <g s:x="-1" s:y="30" s:pid="C"/>
    <g s:x="-1" s:y="10" s:pid="D"/>
  </g>
  <g s:type="mux-bus" transform="translate(249,76)" s:width="24" s:height="40" id="cell_$procmux$4">
    <s:alias val="$pmux-bus"/>
    <s:alias val="$mux-bus"/>
    <s:alias val="$_MUX_-bus"/>
    <path d="M0,0 L20,10 L20,30 L0,40 Z" class="cell_$procmux$4"/>
    <path d="M4,2 L4,0 L22,9 L22,31 L4,40 L4,38" class="cell_$procmux$4"/>
    <path d="M8,2 L8,0 L24,8 L24,32 L8,40 L8,38" class="cell_$procmux$4"/>
    <text x="5" y="32" class="nodelabel cell_$procmux$4" s:attribute="">1</text>
    <text x="5" y="13" class="nodelabel cell_$procmux$4" s:attribute="">0</text>
    <g s:x="-1" s:y="10" s:pid="A"/>
    <g s:x="-1" s:y="30" s:pid="B"/>
    <g s:x="12" s:y="38" s:pid="S"/>
    <g s:x="24.5" s:y="20" s:pid="Y"/>
  </g>
  <g s:type="inputExt" transform="translate(308.5,147)" s:width="30" s:height="20" id="cell_clk">
    <text x="15" y="-4" class="nodelabel cell_clk" s:attribute="ref">clk</text>
    <s:alias val="$_inputExt_"/>
    <path d="M0,0 L0,20 L15,20 L30,10 L15,0 Z" class="cell_clk"/>
    <g s:x="30" s:y="10" s:pid="Y"/>
  </g>
  <g s:type="inputExt" transform="translate(183,157)" s:width="30" s:height="20" id="cell_reset">
    <text x="15" y="-4" class="nodelabel cell_reset" s:attribute="ref">reset</text>
    <s:alias val="$_inputExt_"/>
    <path d="M0,0 L0,20 L15,20 L30,10 L15,0 Z" class="cell_reset"/>
    <g s:x="30" s:y="10" s:pid="Y"/>
  </g>
  <g s:type="outputExt" transform="translate(479.5,127)" s:width="30" s:height="20" id="cell_out">
    <text x="15" y="-4" class="nodelabel cell_out" s:attribute="ref">out</text>
    <s:alias val="$_outputExt_"/>
    <path d="M30,0 L30,20 L15,20 L0,10 L15,0 Z" class="cell_out"/>
    <g s:x="0" s:y="10" s:pid="A"/>
  </g>
  <g s:type="constant" transform="translate(12,36)" s:width="30" s:height="20" id="cell_00000001">
    <text x="15" y="-4" class="nodelabel cell_00000001" s:attribute="ref">0x1</text>
    <s:alias val="$_constant_"/>
    <rect width="30" height="20" class="cell_00000001"/>
    <g s:x="31" s:y="10" s:pid="Y"/>
  </g>
  <g s:type="constant" transform="translate(117,96)" s:width="30" s:height="20" id="cell_00000000">
    <text x="15" y="-4" class="nodelabel cell_00000000" s:attribute="ref">0x0</text>
    <s:alias val="$_constant_"/>
    <rect width="30" height="20" class="cell_00000000"/>
    <g s:x="31" s:y="10" s:pid="Y"/>
  </g>
  <line x1="405.5" x2="415.5" y1="137" y2="137" class="net_4,5,6,7,8,9,10,11 width_8" style="stroke-width: 2"/>
  <line x1="415.5" x2="415.5" y1="137" y2="16" class="net_4,5,6,7,8,9,10,11 width_8" style="stroke-width: 2"/>
  <line x1="415.5" x2="92" y1="16" y2="16" class="net_4,5,6,7,8,9,10,11 width_8" style="stroke-width: 2"/>
  <line x1="92" x2="92" y1="16" y2="31" class="net_4,5,6,7,8,9,10,11 width_8" style="stroke-width: 2"/>
  <circle cx="415.5" cy="137" r="3" style="fill:#000" class="net_4,5,6,7,8,9,10,11 width_8"/>
  <line x1="92" x2="122.66666666666667" y1="31" y2="31" class="net_4,5,6,7,8,9,10,11 width_8" style="stroke-width: 2"/>
  <line x1="405.5" x2="479.5" y1="137" y2="137" class="net_4,5,6,7,8,9,10,11 width_8" style="stroke-width: 2"/>
  <line x1="43" x2="122.66666666666667" y1="46" y2="46" class="net_28,29,30,31,32,33,34,35 width_8" style="stroke-width: 2"/>
  <line x1="338.5" x2="373.5" y1="157" y2="157" class="net_2 width_1" style="stroke-width: 1"/>
  <line x1="273.5" x2="348.5" y1="96" y2="96" class="net_20,21,22,23,24,25,26,27 width_8" style="stroke-width: 2"/>
  <line x1="348.5" x2="348.5" y1="96" y2="137" class="net_20,21,22,23,24,25,26,27 width_8" style="stroke-width: 2"/>
  <line x1="348.5" x2="373.5" y1="137" y2="137" class="net_20,21,22,23,24,25,26,27 width_8" style="stroke-width: 2"/>
  <line x1="146.66666666666669" x2="223" y1="38.5" y2="38.5" class="net_12,13,14,15,16,17,18,19 width_8" style="stroke-width: 2"/>
  <line x1="223" x2="223" y1="38.5" y2="86" class="net_12,13,14,15,16,17,18,19 width_8" style="stroke-width: 2"/>
  <line x1="223" x2="248" y1="86" y2="86" class="net_12,13,14,15,16,17,18,19 width_8" style="stroke-width: 2"/>
  <line x1="148" x2="248" y1="106" y2="106" class="net_36,37,38,39,40,41,42,43 width_8" style="stroke-width: 2"/>
  <line x1="213" x2="261" y1="167" y2="167" class="net_3 width_1" style="stroke-width: 1"/>
  <line x1="261" x2="261" y1="167" y2="114" class="net_3 width_1" style="stroke-width: 1"/>
  <rect x="441.5" y="132" width="16" height="9" class="net_4,5,6,7,8,9,10,11 width_8 busLabel_8" style="fill: white; stroke: none"/>
  <text x="440.5" y="140" class="net_4,5,6,7,8,9,10,11 width_8 busLabel_8">/8/</text>
  <rect x="441.5" y="132" width="16" height="9" class="net_4,5,6,7,8,9,10,11 width_8 busLabel_8" style="fill: white; stroke: none"/>
  <text x="440.5" y="140" class="net_4,5,6,7,8,9,10,11 width_8 busLabel_8">/8/</text>
  <rect x="79" y="41" width="16" height="9" class="net_28,29,30,31,32,33,34,35 width_8 busLabel_8" style="fill: white; stroke: none"/>
  <text x="78" y="49" class="net_28,29,30,31,32,33,34,35 width_8 busLabel_8">/8/</text>
  <rect x="322.5" y="91" width="16" height="9" class="net_20,21,22,23,24,25,26,27 width_8 busLabel_8" style="fill: white; stroke: none"/>
  <text x="321.5" y="99" class="net_20,21,22,23,24,25,26,27 width_8 busLabel_8">/8/</text>
  <rect x="197" y="33.5" width="16" height="9" class="net_12,13,14,15,16,17,18,19 width_8 busLabel_8" style="fill: white; stroke: none"/>
  <text x="196" y="41.5" class="net_12,13,14,15,16,17,18,19 width_8 busLabel_8">/8/</text>
  <rect x="197" y="101" width="16" height="9" class="net_36,37,38,39,40,41,42,43 width_8 busLabel_8" style="fill: white; stroke: none"/>
  <text x="196" y="109" class="net_36,37,38,39,40,41,42,43 width_8 busLabel_8">/8/</text>
</svg>
